<svg width="15" height="8" viewBox="0 0 15 8" fill="none" xmlns="http://www.w3.org/2000/svg">
<path d="M10.8125 0.5H1.4375C0.698064 0.5 0.5 0.711268 0.5 1.5V6.5C0.5 7.28873 0.698064 7.5 1.4375 7.5H10.8125C11.5519 7.5 11.75 7.28873 11.75 6.5V1.5C11.75 0.711268 11.5519 0.5 10.8125 0.5Z" stroke="#D6E1EF" stroke-miterlimit="10" stroke-linecap="square"/>
<path d="M6.57085 2H2.30415C2.23973 2 2.1875 2.06277 2.1875 2.14019V5.85981C2.1875 5.93723 2.23973 6 2.30415 6H6.57085C6.63527 6 6.6875 5.93723 6.6875 5.85981V2.14019C6.6875 2.06277 6.63527 2 6.57085 2Z" fill="#D6E1EF"/>
<path d="M14 2.8335V5.16662" stroke="#D6E1EF" stroke-miterlimit="10" stroke-linecap="round"/>
</svg>
