<svg width="11" height="10" viewBox="0 0 11 10" fill="none" xmlns="http://www.w3.org/2000/svg">
<path d="M10.8125 0H9.6875C9.58395 0 9.5 0.111929 9.5 0.25V9.75C9.5 9.88807 9.58395 10 9.6875 10H10.8125C10.9161 10 11 9.88807 11 9.75V0.25C11 0.111929 10.9161 0 10.8125 0Z" fill="#D6E1EF"/>
<path d="M7.8125 2.5H6.6875C6.58395 2.5 6.5 2.61193 6.5 2.75V9.75C6.5 9.88807 6.58395 10 6.6875 10H7.8125C7.91605 10 8 9.88807 8 9.75V2.75C8 2.61193 7.91605 2.5 7.8125 2.5Z" fill="#D6E1EF"/>
<path d="M4.8125 4.5H3.6875C3.58395 4.5 3.5 4.61193 3.5 4.75V9.75C3.5 9.88807 3.58395 10 3.6875 10H4.8125C4.91605 10 5 9.88807 5 9.75V4.75C5 4.61193 4.91605 4.5 4.8125 4.5Z" fill="#D6E1EF"/>
<path d="M1.8125 6.5H0.6875C0.583947 6.5 0.5 6.61193 0.5 6.75V9.75C0.5 9.88807 0.583947 10 0.6875 10H1.8125C1.91605 10 2 9.88807 2 9.75V6.75C2 6.61193 1.91605 6.5 1.8125 6.5Z" fill="#D6E1EF"/>
</svg>
