<svg width="14" height="11" viewBox="0 0 14 11" fill="none" xmlns="http://www.w3.org/2000/svg">
<path d="M9.38828 7.70591C8.73045 7.1212 7.88092 6.79822 7.00078 6.79822C6.12065 6.79822 5.27111 7.1212 4.61328 7.70591" stroke="#D6E1EF" stroke-linecap="round" stroke-linejoin="round"/>
<path d="M11.2954 5.79814C10.1303 4.70872 8.59479 4.10266 6.99973 4.10266C5.40466 4.10266 3.86917 4.70872 2.7041 5.79814" stroke="#D6E1EF" stroke-linecap="round" stroke-linejoin="round"/>
<path d="M12.9913 3.69096C11.3423 2.21994 9.20979 1.40698 7.00004 1.40698C4.79029 1.40698 2.65776 2.21994 1.00879 3.69096" stroke="#D6E1EF" stroke-linecap="round" stroke-linejoin="round"/>
<path d="M7 11C6.80222 11 6.60888 10.9414 6.44443 10.8315C6.27998 10.7216 6.15181 10.5654 6.07612 10.3827C6.00043 10.2 5.98063 9.99889 6.01922 9.80491C6.0578 9.61093 6.15304 9.43275 6.29289 9.29289C6.43275 9.15304 6.61093 9.0578 6.80491 9.01922C6.99889 8.98063 7.19996 9.00043 7.38268 9.07612C7.56541 9.15181 7.72159 9.27998 7.83147 9.44443C7.94135 9.60888 8 9.80222 8 10C8 10.2652 7.89464 10.5196 7.70711 10.7071C7.51957 10.8946 7.26522 11 7 11Z" fill="#D6E1EF"/>
</svg>
